<?xml version="1.0" encoding="UTF-8"?>
<svg width="512px" height="512px" viewBox="0 0 512 512" version="1.1" xmlns="http://www.w3.org/2000/svg" xmlns:xlink="http://www.w3.org/1999/xlink">
    <!-- Generator: Sketch 52 (66869) - http://www.bohemiancoding.com/sketch -->
    <desc>Created with Sketch.</desc>
    <g id="br" stroke="none" stroke-width="1" fill="none" fill-rule="evenodd">
        <g>
            <circle id="Oval" fill="#6DA544" cx="256" cy="256" r="256"></circle>
            <polygon id="Path" fill="#FFDA44" points="256 100.174 467.478 256 256 411.826 44.522 256"></polygon>
            <circle id="Oval" fill="#F0F0F0" cx="256" cy="256" r="89.043"></circle>
            <g id="Group" transform="translate(166.000000, 166.000000)" fill="#0052B4">
                <path d="M45.478,84.435 C29.994,84.435 15.051,86.79 0.985,91.16 C1.608,139.8 41.212,179.044 90,179.044 C120.168,179.044 146.812,164.027 162.919,141.076 C135.362,106.579 92.961,84.435 45.478,84.435 Z" id="Path"></path>
                <path d="M177.393,107.06 C178.465,101.536 179.044,95.837 179.044,90 C179.044,40.822 139.178,0.957 90.001,0.957 C53.307,0.957 21.807,23.158 8.175,54.856 C20.225,52.359 32.701,51.044 45.48,51.044 C97.197,51.043 143.983,72.541 177.393,107.06 Z" id="Path"></path>
            </g>
        </g>
    </g>
</svg>