<?xml version="1.0" encoding="UTF-8"?>
<svg width="28px" height="28px" viewBox="0 0 28 28" version="1.1" xmlns="http://www.w3.org/2000/svg" xmlns:xlink="http://www.w3.org/1999/xlink">
    <!-- Generator: Sketch 52 (66869) - http://www.bohemiancoding.com/sketch -->
    <desc>Created with Sketch.</desc>
    <defs>
        <radialGradient cx="49.8610833%" cy="0%" fx="49.8610833%" fy="0%" r="100.175833%" id="radialGradient-1">
            <stop stop-color="#42A5F5" offset="0%"></stop>
            <stop stop-color="#42A5F5" offset="35.22%"></stop>
            <stop stop-color="#2B8BE2" offset="67.98%"></stop>
            <stop stop-color="#1976D2" offset="100%"></stop>
        </radialGradient>
        <circle id="path-2" cx="14.0662252" cy="14.115894" r="13.9072848"></circle>
        <radialGradient cx="59.2746698%" cy="8.934232%" fx="59.2746698%" fy="8.934232%" r="114.757747%" gradientTransform="translate(0.592747,0.089342),scale(1.000000,0.726543),translate(-0.592747,-0.089342)" id="radialGradient-4">
            <stop stop-color="#AEEA00" offset="0%"></stop>
            <stop stop-color="#ADE903" offset="23.73%"></stop>
            <stop stop-color="#A9E40B" offset="39.15%"></stop>
            <stop stop-color="#A2DC1A" offset="52.2%"></stop>
            <stop stop-color="#98D12F" offset="63.86%"></stop>
            <stop stop-color="#8BC34A" offset="74.59%"></stop>
            <stop stop-color="#8BC34A" offset="100%"></stop>
        </radialGradient>
        <radialGradient cx="-22.7491995%" cy="-1040.0926%" fx="-22.7491995%" fy="-1040.0926%" r="2357.79378%" gradientTransform="translate(-0.227492,-10.400926),scale(0.286987,1.000000),translate(0.227492,10.400926)" id="radialGradient-5">
            <stop stop-color="#AEEA00" offset="0%"></stop>
            <stop stop-color="#ADE903" offset="23.73%"></stop>
            <stop stop-color="#A9E40B" offset="39.15%"></stop>
            <stop stop-color="#A2DC1A" offset="52.2%"></stop>
            <stop stop-color="#98D12F" offset="63.86%"></stop>
            <stop stop-color="#8BC34A" offset="74.59%"></stop>
            <stop stop-color="#8BC34A" offset="100%"></stop>
        </radialGradient>
        <radialGradient cx="-291.669463%" cy="-1409.84696%" fx="-291.669463%" fy="-1409.84696%" r="2990.69467%" gradientTransform="translate(-2.916695,-14.098470),scale(0.496800,1.000000),translate(2.916695,14.098470)" id="radialGradient-6">
            <stop stop-color="#AEEA00" offset="0%"></stop>
            <stop stop-color="#ADE903" offset="23.73%"></stop>
            <stop stop-color="#A9E40B" offset="39.15%"></stop>
            <stop stop-color="#A2DC1A" offset="52.2%"></stop>
            <stop stop-color="#98D12F" offset="63.86%"></stop>
            <stop stop-color="#8BC34A" offset="74.59%"></stop>
            <stop stop-color="#8BC34A" offset="100%"></stop>
        </radialGradient>
    </defs>
    <g id="ic-international_2" stroke="none" stroke-width="1" fill="none" fill-rule="evenodd">
        <g id="42452globeshowingamericas_98940">
            <g id="Group-+-Group-Mask">
                <mask id="mask-3" fill="white">
                    <use xlink:href="#path-2"></use>
                </mask>
                <use id="Mask" fill="url(#radialGradient-1)" xlink:href="#path-2"></use>
                <g id="Group" mask="url(#mask-3)">
                    <g transform="translate(-2.000000, -3.500000)">
                        <g opacity="0.2">
                            <path d="M8.49735099,0.804304636 C8.63874172,0.804304636 8.78245033,0.841390728 8.91225166,0.920198675 L9.87880795,1.50430464 C10.6089404,1.94470199 11.4433775,2.17417219 12.2870861,2.17417219 C12.5443709,2.17417219 12.8016556,2.15331126 13.0566225,2.10927152 L15.9516556,1.62483444 C16.0003311,1.61556291 16.0490066,1.61324503 16.0976821,1.61324503 C16.5450331,1.61324503 16.9344371,1.95860927 16.9715232,2.41986755 L17.0688742,3.61125828 C17.1129139,4.16523179 16.7304636,4.66125828 16.1834437,4.75629139 L15.8728477,4.81192053 C15.1751656,4.93476821 14.5864238,5.40066225 14.3059603,6.04966887 C14.1877483,6.32086093 14.2480132,6.6384106 14.4566225,6.84933775 L16.2668874,8.68046358 C16.3456954,8.7615894 16.4546358,8.80562914 16.565894,8.80562914 C16.586755,8.80562914 16.6099338,8.80331126 16.6307947,8.80099338 C16.8208609,8.77086093 16.9645695,8.61788079 16.9831126,8.42549669 L17.1847682,6.34635762 C17.2288079,5.89205298 17.6112583,5.54437086 18.0678808,5.54437086 L18.1327815,5.54437086 C18.4758278,5.54437086 18.7887417,5.74370861 18.9347682,6.05430464 L19.3427152,6.92582781 C19.4122517,7.07417219 19.5582781,7.15761589 19.7089404,7.15761589 C19.7831126,7.15761589 19.8596026,7.13675497 19.9268212,7.09271523 C19.9940397,7.0486755 20.0705298,7.02781457 20.144702,7.02781457 C20.3,7.02781457 20.4483444,7.11589404 20.5155629,7.27119205 L21.5725166,9.70960265 C21.7996689,10.2334437 21.5562914,10.8407285 21.0301325,11.0609272 L20.1748344,11.4201987 C18.7215232,12.0298013 17.4397351,12.9801325 16.4337748,14.194702 L16.4129139,14.2201987 C16.3619205,14.2827815 16.3364238,14.3615894 16.3410596,14.4403974 L16.3990066,15.3443709 C16.410596,15.5089404 16.2900662,15.6549669 16.1254967,15.6758278 C16.0953642,15.6804636 16.0675497,15.6827815 16.0374172,15.6827815 C15.7523179,15.6827815 15.4950331,15.497351 15.4092715,15.2192053 L15.4069536,15.2076159 C15.3188742,14.9225166 15.0569536,14.7324503 14.7649007,14.7324503 C14.7324503,14.7324503 14.6976821,14.7347682 14.6629139,14.739404 L14.0834437,14.8274834 C13.6476821,14.894702 13.2768212,15.1821192 13.1099338,15.5900662 L12.9407285,16.0003311 C12.8804636,16.1440397 12.892053,16.3062914 12.968543,16.4407285 L12.9870861,16.4708609 C13.0821192,16.6354305 13.2513245,16.7235099 13.4228477,16.7235099 C13.5410596,16.7235099 13.6615894,16.6817881 13.7589404,16.5937086 C13.8516556,16.5102649 13.9721854,16.4639073 14.097351,16.4639073 C14.1066225,16.4639073 14.115894,16.4639073 14.1251656,16.4639073 L14.4821192,16.4847682 C14.6907285,16.4963576 14.8298013,16.7049669 14.7602649,16.9019868 L14.7092715,17.0480132 C14.6096026,17.3331126 14.8205298,17.6321192 15.1241722,17.6321192 C15.3490066,17.6321192 15.536755,17.8013245 15.5599338,18.0238411 L15.6178808,18.5546358 C15.6410596,18.7562914 15.7986755,18.9162252 16.0003311,18.9417219 L16.0490066,18.9486755 C16.0675497,18.9509934 16.0860927,18.9509934 16.1046358,18.9509934 C16.2576159,18.9509934 16.3990066,18.8721854 16.4801325,18.7400662 C16.702649,18.3715232 17.1013245,18.1513245 17.5254967,18.1513245 C17.5788079,18.1513245 17.6344371,18.1559603 17.6877483,18.1629139 L18.8629139,18.3205298 C19.5072848,18.4062914 20.1215232,18.6543046 20.6453642,19.0390728 L21.4821192,19.6556291 C21.7347682,19.8410596 21.9201987,20.1029801 22.0152318,20.3996689 C22.1380795,20.7890728 22.4162252,21.1089404 22.7824503,21.2850993 L24.4188742,22.0731788 C24.8986755,22.3049669 25.084106,22.8890728 24.8268212,23.3549669 L23.702649,25.394702 C23.5751656,25.6264901 23.352649,25.7933775 23.0953642,25.8513245 L22.4347682,25.9996689 C22.0337748,26.0900662 21.7370861,26.4331126 21.7046358,26.8433775 L21.6976821,26.9453642 C21.6652318,27.3602649 21.4913907,27.7496689 21.2039735,28.0509934 L17.7433775,31.6807947 C17.3331126,32.1096026 17.2913907,32.7725166 17.6413907,33.25 L17.8870861,33.5860927 C18.0701987,33.8364238 17.8847682,34.1748344 17.5927152,34.1748344 C17.5741722,34.1748344 17.5533113,34.1725166 17.5324503,34.1701987 L16.8927152,34.0728477 C16.4801325,34.0102649 16.1370861,33.7205298 16.002649,33.3264901 L15.7291391,32.5175497 C15.5900662,32.1096026 15.5807947,31.6692053 15.6990066,31.2543046 L17.1430464,26.1642384 C17.3029801,25.6056291 17.1384106,25.0029801 16.7211921,24.5996689 L16.4198675,24.3099338 C16.0698675,23.9738411 15.8288079,23.5403974 15.7291391,23.0675497 L15.4208609,21.6258278 C15.3211921,21.1599338 15.4092715,20.6754967 15.6642384,20.2721854 L15.7175497,20.1887417 C15.8798013,19.931457 15.7407285,19.5907285 15.4440397,19.5235099 L15.3397351,19.5003311 C15.2377483,19.4771523 15.147351,19.4192053 15.0847682,19.3334437 L14.252649,18.2162252 C14.2155629,18.1675497 14.1668874,18.1304636 14.1112583,18.1096026 L12.0761589,17.3470199 C11.5569536,17.1523179 11.1211921,16.7860927 10.8407285,16.3062914 L8.8705298,12.9360927 C8.60165563,12.4771523 8.4486755,11.9602649 8.42086093,11.4294702 L8.37218543,10.442053 C8.3397351,9.77682119 8.12880795,9.13013245 7.76490066,8.57152318 L7.26192053,7.80198675 C6.81225166,7.11125828 6.20960265,6.53410596 5.50033113,6.11225166 L5.34966887,6.02649007 C5.09470199,5.87582781 4.80960265,5.79933775 4.52682119,5.79933775 C4.47350993,5.79933775 4.42251656,5.80165563 4.3692053,5.80629139 C4.23013245,5.82019868 4.0910596,5.82715232 3.95198675,5.82715232 C3.45827815,5.82715232 2.96688742,5.73675497 2.51490066,5.5281457 L0.834437086,4.75629139 C0.704635762,4.69602649 0.649006623,4.52450331 0.739403974,4.41324503 C0.739403974,4.41324503 0.741721854,4.41092715 0.741721854,4.41092715 L1.16821192,3.90331126 C1.32350993,3.71788079 1.22152318,3.43509934 0.985099338,3.3910596 C0.792715232,3.35629139 0.679139073,3.15463576 0.748675497,2.97152318 L0.906291391,2.55662252 C0.950331126,2.44072848 1.05927152,2.36192053 1.18211921,2.35496689 C1.43245033,2.33874172 6.18642384,2.2089404 7.47748344,1.13112583 C7.66291391,0.978145695 7.93410596,0.989735099 8.14966887,0.885430464 C8.25860927,0.832119205 8.37682119,0.804304636 8.49735099,0.804304636 Z M8.49735099,0.108940397 C8.27251656,0.108940397 8.05,0.159933775 7.84834437,0.257284768 C7.82516556,0.266556291 7.75562914,0.285099338 7.70463576,0.296688742 C7.5192053,0.340728477 7.26655629,0.400993377 7.03013245,0.595695364 C6.53410596,1.01059603 4.75629139,1.50662252 1.25629139,1.65496689 C1.19602649,1.65728477 1.15662252,1.65960265 1.13807947,1.66192053 C0.744039735,1.68741722 0.398675497,1.94006623 0.257284768,2.30860927 L0.0996688742,2.72350993 C-0.00695364238,3.00397351 0.0139072848,3.31456954 0.162251656,3.57649007 C0.210927152,3.66456954 0.271192053,3.7410596 0.340728477,3.81059603 L0.208609272,3.96589404 C0.208609272,3.96821192 0.20397351,3.97284768 0.201655629,3.97516556 C0.0254966887,4.19072848 -0.0394039735,4.47350993 0.0231788079,4.74933775 C0.0880794702,5.02980132 0.282781457,5.27086093 0.544701987,5.38907285 L2.22516556,6.16092715 C2.74668874,6.39966887 3.32847682,6.52251656 3.95198675,6.52251656 C4.11192053,6.52251656 4.27417219,6.51556291 4.43874172,6.49933775 C4.46887417,6.49701987 4.49900662,6.49470199 4.52913907,6.49470199 C4.69370861,6.49470199 4.85596026,6.53874172 4.99735099,6.62450331 L5.14569536,6.71258278 C5.75993377,7.07649007 6.2884106,7.58642384 6.68013245,8.18443709 L7.18311258,8.95397351 C7.47980132,9.40827815 7.6513245,9.93675497 7.67913907,10.4791391 L7.72781457,11.4665563 C7.7602649,12.1062914 7.94801325,12.736755 8.27019868,13.2884106 L10.2403974,16.6586093 C10.5996689,17.2728477 11.1652318,17.7480132 11.8304636,17.9983444 L13.7612583,18.7215232 L14.5261589,19.7483444 C14.6397351,19.9013245 14.7903974,20.0218543 14.9596026,20.1006623 C14.6953642,20.6129139 14.6165563,21.1970199 14.739404,21.7695364 L15.0476821,23.2112583 C15.1774834,23.8231788 15.4857616,24.3771523 15.9377483,24.810596 L16.2390728,25.1003311 C16.4731788,25.3251656 16.5635762,25.6612583 16.4754967,25.9741722 L15.031457,31.0642384 C14.8738411,31.615894 14.8900662,32.1953642 15.0731788,32.7400662 L15.3466887,33.5490066 C15.5645695,34.1933775 16.1162252,34.6569536 16.7884106,34.7612583 L17.4281457,34.8586093 C17.4837748,34.8678808 17.539404,34.8701987 17.5927152,34.8701987 C17.9937086,34.8701987 18.3576159,34.6453642 18.5407285,34.2860927 C18.7238411,33.9268212 18.6890728,33.5003311 18.4503311,33.1758278 L18.2046358,32.8397351 C18.0516556,32.6311258 18.0725166,32.3460265 18.2486755,32.160596 L21.7092715,28.5307947 C22.1056291,28.115894 22.3466887,27.5735099 22.3930464,27.0009934 L22.4,26.8990066 C22.4092715,26.7923841 22.4857616,26.7043046 22.5900662,26.6788079 L23.2506623,26.5304636 C23.702649,26.4284768 24.0897351,26.1364238 24.3145695,25.7307947 L25.4387417,23.6910596 C25.6519868,23.3016556 25.6983444,22.8380795 25.5639073,22.4139073 C25.4294702,21.992053 25.1235099,21.6374172 24.7225166,21.4450331 L23.0860927,20.6569536 C22.8913907,20.5642384 22.7453642,20.3927152 22.6804636,20.1887417 C22.5413907,19.7460265 22.2701987,19.3682119 21.8970199,19.0923841 L21.0602649,18.4758278 C20.4437086,18.0215232 19.715894,17.7294702 18.957947,17.6274834 L17.7827815,17.4698675 C17.6993377,17.4582781 17.6135762,17.4536424 17.5278146,17.4536424 C17.0549669,17.4536424 16.6006623,17.6321192 16.2529801,17.9403974 C16.1996689,17.481457 15.8798013,17.1152318 15.457947,16.9854305 C15.5089404,16.7258278 15.4556291,16.4615894 15.3049669,16.236755 C15.1264901,15.9701987 14.8413907,15.807947 14.5215232,15.789404 L14.1645695,15.768543 C14.1413907,15.7662252 14.1182119,15.7662252 14.097351,15.7662252 C13.9860927,15.7662252 13.8771523,15.7824503 13.7728477,15.8102649 C13.8539735,15.652649 14.0092715,15.5390728 14.1877483,15.5135762 L14.7486755,15.4278146 C14.9271523,15.9933775 15.4440397,16.3735099 16.0397351,16.3735099 C16.1,16.3735099 16.1602649,16.3688742 16.2182119,16.3619205 C16.742053,16.2923841 17.1268212,15.8241722 17.092053,15.2956954 L17.0433775,14.544702 C17.9612583,13.4645695 19.134106,12.6069536 20.4413907,12.0576159 L21.2966887,11.6983444 C21.7231788,11.5198675 22.0546358,11.1837748 22.2261589,10.7549669 C22.3976821,10.3261589 22.3930464,9.85562914 22.2076159,9.42913907 L21.1506623,6.99072848 C20.9768212,6.5897351 20.5804636,6.33013245 20.1423841,6.33013245 C20.0427152,6.33013245 19.9453642,6.34403974 19.8503311,6.36953642 L19.5629139,5.75529801 C19.3033113,5.2013245 18.7423841,4.84437086 18.1304636,4.84437086 L18.0655629,4.84437086 C17.247351,4.84437086 16.5705298,5.45860927 16.4917219,6.27450331 L16.3480132,7.76953642 L14.952649,6.35562914 C14.9433775,6.34635762 14.9410596,6.33245033 14.9456954,6.32086093 C15.1357616,5.88509934 15.5274834,5.57450331 15.9956954,5.4910596 L16.3062914,5.43543046 C17.2102649,5.27549669 17.8384106,4.46423841 17.7642384,3.5486755 L17.6645695,2.36423841 C17.5996689,1.55298013 16.9112583,0.917880795 16.0976821,0.917880795 C16.0096026,0.917880795 15.9215232,0.924834437 15.8357616,0.938741722 L12.9407285,1.42549669 C12.7251656,1.46258278 12.5049669,1.48112583 12.2847682,1.48112583 C11.5615894,1.48112583 10.8546358,1.28410596 10.2357616,0.910927152 L9.27152318,0.324503311 C9.03741722,0.185430464 8.77086093,0.108940397 8.49735099,0.108940397 Z" id="Shape" fill="#424242" fill-rule="nonzero"></path>
                            <path d="M17.7225166,16.0582781 C17.8639073,16.0582781 18.0029801,16.0791391 18.1397351,16.118543 C18.647351,16.2692053 19.5443709,16.5334437 19.9754967,16.6609272 C20.0960265,16.6956954 20.1493377,16.839404 20.0798013,16.9460265 L19.9731788,17.1036424 C19.9175497,17.189404 19.8225166,17.2380795 19.7228477,17.2380795 C19.7066225,17.2380795 19.6903974,17.2357616 19.6764901,17.2334437 L17.7897351,16.9344371 C17.7016556,16.9205298 17.6135762,16.9135762 17.5278146,16.9135762 C17.4443709,16.9135762 17.3609272,16.9205298 17.2774834,16.9321192 L16.9344371,16.9831126 C16.8880795,16.9900662 16.839404,16.994702 16.7930464,16.994702 C16.5403974,16.994702 16.2970199,16.8927152 16.118543,16.7096026 L16.042053,16.6307947 C15.9701987,16.5566225 16.0049669,16.4337748 16.1046358,16.410596 C16.4198675,16.3317881 16.994702,16.1903974 17.3817881,16.0976821 C17.4930464,16.0721854 17.6089404,16.0582781 17.7225166,16.0582781 Z M17.7225166,15.3629139 C17.5509934,15.3629139 17.3817881,15.3837748 17.2149007,15.4231788 C16.8278146,15.515894 16.2483444,15.6596026 15.9331126,15.7360927 C15.6456954,15.807947 15.4162252,16.0281457 15.3350993,16.313245 C15.2539735,16.5983444 15.3327815,16.9066225 15.5390728,17.1175497 L15.6155629,17.1963576 C15.9215232,17.5115894 16.3503311,17.6900662 16.7884106,17.6900662 C16.8695364,17.6900662 16.9529801,17.6831126 17.0317881,17.6715232 L17.3748344,17.6205298 C17.4235099,17.6135762 17.4721854,17.6089404 17.5208609,17.6089404 C17.5718543,17.6089404 17.6251656,17.6135762 17.6761589,17.6205298 L19.5629139,17.9195364 C19.6139073,17.9288079 19.6672185,17.9311258 19.7182119,17.9311258 C20.0519868,17.9311258 20.3625828,17.7642384 20.5480132,17.4860927 L20.6546358,17.3284768 C20.8099338,17.0966887 20.844702,16.8 20.7496689,16.5380795 C20.6546358,16.2761589 20.436755,16.0721854 20.1701987,15.9910596 L18.8953642,15.6155629 L18.3344371,15.4509934 C18.1374172,15.3930464 17.9311258,15.3629139 17.7225166,15.3629139 Z" id="Shape" fill="#424242" fill-rule="nonzero"></path>
                            <path d="M20.9837748,16.8996689 C21,16.8996689 21.0162252,16.9019868 21.0324503,16.9043046 C21.5284768,16.9854305 22.5854305,17.5741722 22.3721854,17.7572848 C22.3165563,17.8059603 22.2470199,17.8291391 22.1751656,17.8291391 C22.1496689,17.8291391 22.1218543,17.8268212 22.0963576,17.8198675 L20.5619205,17.4096026 C20.5294702,17.4003311 20.5155629,17.363245 20.534106,17.3354305 L20.7311258,17.034106 C20.7890728,16.9506623 20.884106,16.8996689 20.9837748,16.8996689 Z M20.9837748,16.2043046 C20.6476821,16.2043046 20.3347682,16.3735099 20.1516556,16.6539735 L19.9546358,16.955298 C19.8248344,17.1546358 19.7970199,17.4049669 19.8827815,17.6274834 C19.968543,17.85 20.1562914,18.0192053 20.3857616,18.0794702 L21.9201987,18.4897351 C22.0036424,18.5129139 22.0917219,18.5245033 22.1774834,18.5245033 C22.4162252,18.5245033 22.6456954,18.4387417 22.8264901,18.2834437 C23.0582781,18.084106 23.1509934,17.7781457 23.0675497,17.481457 C22.8728477,16.7860927 21.5423841,16.2807947 21.1483444,16.215894 C21.0927152,16.2089404 21.039404,16.2043046 20.9837748,16.2043046 Z" id="Shape" fill="#424242" fill-rule="nonzero"></path>
                        </g>
                        <g transform="translate(0.463576, 0.695364)">
                            <path d="M21.018543,18.9602649 L20.1817881,18.3437086 C19.657947,17.9589404 19.0460265,17.7109272 18.3993377,17.6251656 L17.2241722,17.4675497 C16.742053,17.402649 16.2692053,17.6298013 16.0165563,18.0470199 C15.9261589,18.1953642 15.7592715,18.2764901 15.5854305,18.2556291 L15.536755,18.2486755 C15.3350993,18.2231788 15.1774834,18.063245 15.1543046,17.8615894 L15.0963576,17.3307947 C15.0708609,17.1082781 14.8831126,16.9390728 14.660596,16.9390728 C14.3569536,16.9390728 14.1460265,16.6400662 14.2456954,16.3549669 L14.2966887,16.2089404 C14.3662252,16.0119205 14.2271523,15.8033113 14.018543,15.7917219 L13.6615894,15.7708609 C13.5271523,15.7639073 13.3950331,15.8102649 13.2953642,15.9006623 C13.0589404,16.1162252 12.6811258,16.0559603 12.5235099,15.7778146 L12.5049669,15.7476821 C12.4284768,15.613245 12.4168874,15.4509934 12.4771523,15.3072848 L12.6463576,14.8970199 C12.8155629,14.4890728 13.184106,14.1993377 13.6198675,14.1344371 L14.1993377,14.0463576 C14.5284768,13.9976821 14.8437086,14.194702 14.9410596,14.5122517 L14.9433775,14.5238411 C15.0384106,14.8321192 15.3397351,15.0245033 15.6596026,14.9827815 C15.8241722,14.9619205 15.9423841,14.815894 15.9331126,14.6513245 L15.8751656,13.747351 C15.8705298,13.6662252 15.8960265,13.5874172 15.9470199,13.5271523 L15.9678808,13.5016556 C16.9738411,12.289404 18.2556291,11.336755 19.7089404,10.7271523 L20.5642384,10.3678808 C21.0903974,10.1476821 21.3337748,9.54039735 21.1066225,9.01655629 L20.0496689,6.5781457 C19.95,6.35099338 19.6695364,6.26523179 19.4609272,6.39966887 C19.2546358,6.53178808 18.9811258,6.45298013 18.8768212,6.23046358 L18.4688742,5.3589404 C18.3228477,5.04834437 18.0099338,4.84900662 17.6668874,4.84900662 L17.6019868,4.84900662 C17.1453642,4.84900662 16.7629139,5.19668874 16.7188742,5.65099338 L16.5172185,7.73013245 C16.4986755,7.92019868 16.352649,8.07549669 16.1649007,8.10562914 C16.0304636,8.12649007 15.8960265,8.08245033 15.8009934,7.98509934 L13.9907285,6.15397351 C13.7821192,5.94304636 13.7241722,5.62549669 13.8400662,5.35430464 C14.1228477,4.70529801 14.7115894,4.23940397 15.4069536,4.11655629 L15.7175497,4.06092715 C16.2645695,3.96357616 16.6470199,3.46754967 16.6029801,2.91589404 L16.5056291,1.72450331 C16.4639073,1.21225166 15.9933775,0.843708609 15.4857616,0.929470199 L12.5930464,1.41622517 C11.4943709,1.59933775 10.3678808,1.38377483 9.41523179,0.808940397 L8.4486755,0.224834437 C8.21225166,0.0811258278 7.92483444,0.0741721854 7.68609272,0.187748344 C7.4705298,0.29205298 7.19933775,0.280463576 7.01390728,0.433443709 C5.7205298,1.51357616 0.968874172,1.64337748 0.718543046,1.65960265 C0.595695364,1.66655629 0.486754967,1.74536424 0.442715232,1.86125828 L0.285099338,2.27615894 C0.215562914,2.45927152 0.329139073,2.66092715 0.521523179,2.69801325 C0.75794702,2.74205298 0.859933775,3.02483444 0.704635762,3.2102649 L0.278145695,3.71788079 C0.278145695,3.71788079 0.275827815,3.72019868 0.275827815,3.72019868 C0.185430464,3.83145695 0.241059603,4.00298013 0.370860927,4.06092715 L2.0513245,4.83278146 C2.6307947,5.09933775 3.2705298,5.17119205 3.90562914,5.11092715 C4.24172185,5.07847682 4.58476821,5.15033113 4.88609272,5.32880795 L5.03443709,5.41688742 C5.74370861,5.83874172 6.34403974,6.41589404 6.79602649,7.10662252 L7.29900662,7.87615894 C7.66291391,8.43476821 7.87384106,9.07913907 7.90629139,9.74668874 L7.95496689,10.734106 C7.98046358,11.2649007 8.13576159,11.7817881 8.40463576,12.2407285 L10.3748344,15.6109272 C10.655298,16.0884106 11.0910596,16.4569536 11.6102649,16.6516556 L13.6453642,17.4142384 C13.7009934,17.4350993 13.7519868,17.4721854 13.786755,17.5208609 L14.6188742,18.6380795 C14.681457,18.7215232 14.7718543,18.7817881 14.8738411,18.8049669 L14.9781457,18.8281457 C15.2748344,18.8953642 15.4162252,19.2360927 15.2516556,19.4933775 L15.1983444,19.5768212 C14.9433775,19.9778146 14.855298,20.4645695 14.9549669,20.9304636 L15.263245,22.3721854 C15.3652318,22.847351 15.6062914,23.2784768 15.9539735,23.6145695 L16.255298,23.9043046 C16.6748344,24.3076159 16.8370861,24.907947 16.6771523,25.4688742 L15.2331126,30.5589404 C15.1149007,30.9738411 15.1264901,31.4142384 15.263245,31.8221854 L15.536755,32.6311258 C15.6711921,33.0274834 16.0142384,33.3149007 16.4268212,33.3774834 L17.0665563,33.4748344 C17.3933775,33.5258278 17.615894,33.1572848 17.4211921,32.8907285 L17.1754967,32.5546358 C16.8254967,32.0748344 16.8672185,31.4142384 17.2774834,30.9854305 L20.7380795,27.3556291 C21.0254967,27.0543046 21.1993377,26.6649007 21.2317881,26.25 L21.2387417,26.1480132 C21.2711921,25.7377483 21.5678808,25.394702 21.9688742,25.3043046 L22.6294702,25.1559603 C22.8890728,25.0980132 23.1092715,24.9311258 23.236755,24.6993377 L24.3609272,22.6596026 C24.6182119,22.1937086 24.4304636,21.6072848 23.9529801,21.3778146 L22.3165563,20.5897351 C21.9503311,20.4135762 21.6721854,20.0913907 21.5493377,19.7043046 C21.4566225,19.405298 21.2711921,19.1456954 21.018543,18.9602649 Z" id="Path" fill="url(#radialGradient-4)"></path>
                            <path d="M16.915894,15.4046358 C16.5288079,15.497351 15.9539735,15.6387417 15.6387417,15.7175497 C15.5390728,15.7430464 15.5043046,15.865894 15.5761589,15.9377483 L15.652649,16.0165563 C15.8635762,16.2344371 16.1672185,16.3364238 16.468543,16.2900662 L16.8115894,16.2390728 C16.9807947,16.2135762 17.1546358,16.2135762 17.3261589,16.2413907 L19.2129139,16.5403974 C19.3288079,16.5589404 19.444702,16.507947 19.5119205,16.410596 L19.618543,16.2529801 C19.6880795,16.1463576 19.6370861,16.0049669 19.5142384,15.9678808 C19.0831126,15.8403974 18.1860927,15.5761589 17.6784768,15.4254967 C17.4304636,15.3513245 17.168543,15.3443709 16.915894,15.4046358 Z" id="Path" fill="url(#radialGradient-5)"></path>
                            <path d="M20.2698675,16.3410596 L20.0728477,16.6423841 C20.0543046,16.6701987 20.0682119,16.7072848 20.1006623,16.7165563 L21.6350993,17.1268212 C21.7324503,17.1523179 21.8344371,17.1291391 21.9086093,17.0642384 C22.1241722,16.8788079 21.0649007,16.2923841 20.5688742,16.2112583 C20.4529801,16.1903974 20.3347682,16.2413907 20.2698675,16.3410596 Z" id="Path" fill="url(#radialGradient-6)"></path>
                        </g>
                    </g>
                </g>
            </g>
        </g>
    </g>
</svg>