<?xml version="1.0" encoding="UTF-8"?>
<svg width="512px" height="512px" viewBox="0 0 512 512" version="1.1" xmlns="http://www.w3.org/2000/svg" xmlns:xlink="http://www.w3.org/1999/xlink">
    <!-- Generator: Sketch 52 (66869) - http://www.bohemiancoding.com/sketch -->
    <desc>Created with Sketch.</desc>
    <g id="us" stroke="none" stroke-width="1" fill="none" fill-rule="evenodd">
        <g>
            <circle id="Oval" fill="#F0F0F0" cx="255.500975" cy="256.499025" r="255.500975"></circle>
            <g id="Group" transform="translate(7.984405, 55.890838)" fill="#D80027">
                <path d="M236.438207,200.608187 L503.017544,200.608187 C503.017544,177.553216 499.923587,155.196881 494.234698,133.938402 L236.438207,133.938402 L236.438207,200.608187 Z" id="Path"></path>
                <path d="M236.438207,67.268616 L465.590643,67.268616 C449.921248,41.7185185 429.960234,19.1625731 406.605848,0.598830409 L236.438207,0.598830409 L236.438207,67.268616 Z" id="Path"></path>
                <path d="M247.516569,456.109162 C307.59922,456.109162 362.891228,435.349708 406.605848,400.517739 L88.4272904,400.517739 C132.14191,435.349708 187.433918,456.109162 247.516569,456.109162 Z" id="Path"></path>
                <path d="M29.5423002,333.947758 L465.590643,333.947758 C478.166082,313.487719 487.847173,291.031579 494.334503,267.277973 L0.798440546,267.277973 C7.18596491,291.031579 16.9668616,313.387914 29.5423002,333.947758 Z" id="Path"></path>
            </g>
            <path d="M118.368811,40.920078 L141.623392,40.920078 L119.965692,56.6892788 L128.249513,82.1395712 L106.591813,66.3703704 L84.9341131,82.1395712 L92.120078,60.1824561 C73.0573099,76.051462 56.2900585,94.7150097 42.5169591,115.374659 L50.0023392,115.374659 L36.2292398,125.355166 C34.0335283,128.948148 32.0374269,132.541131 30.0413255,136.233918 L36.62846,156.494347 L24.3524366,147.611696 C21.2584795,154.099025 18.4639376,160.68616 15.9688109,167.472904 L23.2545809,189.82924 L50.0023392,189.82924 L28.3446394,205.598441 L36.62846,231.048733 L14.9707602,215.179727 L1.99610136,224.561404 C0.698635478,235.040936 0,245.620273 0,256.39922 L255.500975,256.39922 C255.500975,115.274854 255.500975,98.6074074 255.500975,0.898245614 C204.99961,0.998050682 157.991423,15.6693957 118.368811,40.920078 Z M128.249513,230.948928 L106.591813,215.179727 L84.9341131,230.948928 L93.2179337,205.498635 L71.5602339,189.729435 L98.3079922,189.729435 L106.591813,164.279142 L114.875634,189.729435 L141.623392,189.729435 L119.965692,205.498635 L128.249513,230.948928 Z M119.965692,131.044055 L128.249513,156.494347 L106.591813,140.725146 L84.9341131,156.494347 L93.2179337,131.044055 L71.5602339,115.274854 L98.3079922,115.274854 L106.591813,89.8245614 L114.875634,115.274854 L141.623392,115.274854 L119.965692,131.044055 Z M219.870565,230.948928 L198.212865,215.179727 L176.555166,230.948928 L184.838986,205.498635 L163.181287,189.729435 L189.929045,189.729435 L198.212865,164.279142 L206.496686,189.729435 L233.244444,189.729435 L211.586745,205.498635 L219.870565,230.948928 Z M211.586745,131.044055 L219.870565,156.494347 L198.212865,140.725146 L176.555166,156.494347 L184.838986,131.044055 L163.181287,115.274854 L189.929045,115.274854 L198.212865,89.8245614 L206.496686,115.274854 L233.244444,115.274854 L211.586745,131.044055 Z M211.586745,56.5894737 L219.870565,82.0397661 L198.212865,66.2705653 L176.555166,82.0397661 L184.838986,56.5894737 L163.181287,40.920078 L189.929045,40.920078 L198.212865,15.4697856 L206.496686,40.920078 L233.244444,40.920078 L211.586745,56.5894737 Z" id="Shape" fill="#0052B4" fill-rule="nonzero"></path>
        </g>
    </g>
</svg>