<svg width="1200" height="260" viewBox="0 0 1200 260" fill="none" xmlns="http://www.w3.org/2000/svg">
<g clip-path="url(#clip0_13_69505)">
<mask id="mask0_13_69505" style="mask-type:alpha" maskUnits="userSpaceOnUse" x="9" y="0" width="1201" height="260">
<rect x="9.03906" width="1200" height="260" rx="12" fill="url(#paint0_linear_13_69505)"/>
</mask>
<g mask="url(#mask0_13_69505)">
<path d="M29.4651 52.0026L58.2955 103.99H0.634766L29.4651 52.0026Z" fill="#2F3435"/>
<path d="M87.469 156.009L116.299 207.996H58.6387L87.469 156.009Z" fill="#2F3435"/>
<path d="M58.1775 103.99L29.3471 52.0025L87.0079 52.0025L58.1775 103.99Z" fill="#2B3031"/>
<path d="M1.1736 207.996L-27.6568 156.009L30.004 156.009L1.1736 207.996Z" fill="#2B3031"/>
<path d="M116.181 207.996L87.3511 156.009L145.012 156.009L116.181 207.996Z" fill="#2B3031"/>
<path d="M29.4646 52.003L0.634255 0.0152309L58.295 0.0152359L29.4646 52.003Z" fill="#2B3031"/>
<path d="M87.0076 52.003L58.1772 0.0152309L115.838 0.0152359L87.0076 52.003Z" fill="#2B3031"/>
<path d="M145.011 52.003L116.181 0.0152309L173.842 0.0152359L145.011 52.003Z" fill="#2B3031"/>
<path d="M87.0081 52.0026L115.838 103.99H58.1777L87.0081 52.0026Z" fill="#2F3435"/>
<path d="M30.0042 156.009L58.8346 207.996H1.17383L30.0042 156.009Z" fill="#2F3435"/>
<path d="M145.012 156.009L173.842 207.996H116.182L145.012 156.009Z" fill="#2F3435"/>
<path d="M145.012 52.0026L173.842 103.99H116.182L145.012 52.0026Z" fill="#2F3435"/>
<path d="M0.804979 0L29.6353 51.9878H-28.0254L0.804979 0Z" fill="#2F3435"/>
<path d="M173.959 0L202.79 51.9878H145.129L173.959 0Z" fill="#2F3435"/>
<path d="M87.0075 155.993L58.1772 104.006L115.838 104.006L87.0075 155.993Z" fill="#2B3031"/>
<path d="M30.0056 260L1.1752 208.012L58.8359 208.012L30.0056 260Z" fill="#2B3031"/>
<path d="M145.011 260L116.181 208.012L173.842 208.012L145.011 260Z" fill="#2B3031"/>
<path d="M145.129 155.993L116.298 104.006L173.959 104.006L145.129 155.993Z" fill="#2B3031"/>
<path d="M58.2951 104.006L87.1255 155.993L29.4648 155.993L58.2951 104.006Z" fill="#2F3435"/>
<path d="M1.29124 208.012L30.1216 260L-27.5391 260L1.29124 208.012Z" fill="#2F3435"/>
<path d="M116.299 208.012L145.129 260L87.4687 260L116.299 208.012Z" fill="#2F3435"/>
<path d="M58.467 5.04086e-06L87.2974 51.9878L29.6366 51.9878L58.467 5.04086e-06Z" fill="#2F3435"/>
<path d="M115.955 5.04086e-06L144.786 51.9878L87.1249 51.9878L115.955 5.04086e-06Z" fill="#2F3435"/>
<path d="M29.4646 155.993L0.634187 104.006L58.2949 104.006L29.4646 155.993Z" fill="#2B3031"/>
<path d="M87.4685 260L58.6381 208.012L116.299 208.012L87.4685 260Z" fill="#2B3031"/>
<path d="M432.465 52.0026L461.296 103.99H403.635L432.465 52.0026Z" fill="#2F3435"/>
<path d="M375.461 156.009L404.292 207.996H346.631L375.461 156.009Z" fill="#2F3435"/>
<path d="M490.469 156.009L519.299 207.996H461.639L490.469 156.009Z" fill="#2F3435"/>
<path d="M260.375 156.009L289.206 207.996H231.545L260.375 156.009Z" fill="#2F3435"/>
<path d="M202.83 156.009L231.661 207.996H174L202.83 156.009Z" fill="#2F3435"/>
<path d="M317.918 52.1729L346.749 104.161H289.088L317.918 52.1729Z" fill="#2F3435"/>
<path d="M202.83 52.0028L231.661 103.991H174L202.83 52.0028Z" fill="#2F3435"/>
<path d="M461.178 103.99L432.347 52.0025L490.008 52.0025L461.178 103.99Z" fill="#2B3031"/>
<path d="M404.174 207.996L375.343 156.009L433.004 156.009L404.174 207.996Z" fill="#2B3031"/>
<path d="M519.181 207.996L490.351 156.009L548.012 156.009L519.181 207.996Z" fill="#2B3031"/>
<path d="M289.09 207.996L260.259 156.009L317.92 156.009L289.09 207.996Z" fill="#2B3031"/>
<path d="M346.631 104.161L317.8 52.1729L375.461 52.173L346.631 104.161Z" fill="#2B3031"/>
<path d="M231.545 103.991L202.714 52.0028L260.375 52.0028L231.545 103.991Z" fill="#2B3031"/>
<path d="M375.461 52.003L346.63 0.0152309L404.291 0.0152359L375.461 52.003Z" fill="#2B3031"/>
<path d="M432.465 52.003L403.634 0.0152309L461.295 0.0152359L432.465 52.003Z" fill="#2B3031"/>
<path d="M490.008 52.003L461.177 0.0152309L518.838 0.0152359L490.008 52.003Z" fill="#2B3031"/>
<path d="M548.011 52.003L519.181 0.0152309L576.842 0.0152359L548.011 52.003Z" fill="#2B3031"/>
<path d="M317.92 52.003L289.089 0.0152309L346.75 0.0152359L317.92 52.003Z" fill="#2B3031"/>
<path d="M260.492 52.003L231.662 0.0152309L289.322 0.0152359L260.492 52.003Z" fill="#2B3031"/>
<path d="M490.008 52.0026L518.838 103.99H461.178L490.008 52.0026Z" fill="#2F3435"/>
<path d="M433.004 156.009L461.835 207.996H404.174L433.004 156.009Z" fill="#2F3435"/>
<path d="M548.012 156.009L576.842 207.996H519.182L548.012 156.009Z" fill="#2F3435"/>
<path d="M548.012 52.0026L576.842 103.99H519.182L548.012 52.0026Z" fill="#2F3435"/>
<path d="M317.918 156.009L346.749 207.997H289.088L317.918 156.009Z" fill="#2F3435"/>
<path d="M375.461 52.1729L404.292 104.161H346.631L375.461 52.1729Z" fill="#2F3435"/>
<path d="M260.375 52.0028L289.206 103.991H231.545L260.375 52.0028Z" fill="#2F3435"/>
<path d="M231.662 0L260.493 51.9878H202.832L231.662 0Z" fill="#2F3435"/>
<path d="M289.323 0L318.153 51.9878H260.492L289.323 0Z" fill="#2F3435"/>
<path d="M403.805 0L432.635 51.9878H374.975L403.805 0Z" fill="#2F3435"/>
<path d="M576.959 0L605.79 51.9878H548.129L576.959 0Z" fill="#2F3435"/>
<path d="M490.008 155.993L461.177 104.006L518.838 104.006L490.008 155.993Z" fill="#2B3031"/>
<path d="M433.006 260L404.175 208.012L461.836 208.012L433.006 260Z" fill="#2B3031"/>
<path d="M548.011 260L519.181 208.012L576.842 208.012L548.011 260Z" fill="#2B3031"/>
<path d="M317.838 260L289.007 208.012L346.668 208.012L317.838 260Z" fill="#2B3031"/>
<path d="M548.129 155.993L519.298 104.006L576.959 104.006L548.129 155.993Z" fill="#2B3031"/>
<path d="M375.461 155.993L346.63 104.006L404.291 104.006L375.461 155.993Z" fill="#2B3031"/>
<path d="M260.375 155.994L231.544 104.006L289.205 104.006L260.375 155.994Z" fill="#2B3031"/>
<path d="M461.295 104.006L490.126 155.993L432.465 155.993L461.295 104.006Z" fill="#2F3435"/>
<path d="M404.291 208.012L433.122 260L375.461 260L404.291 208.012Z" fill="#2F3435"/>
<path d="M519.299 208.012L548.129 260L490.469 260L519.299 208.012Z" fill="#2F3435"/>
<path d="M289.205 208.012L318.036 260L260.375 260L289.205 208.012Z" fill="#2F3435"/>
<path d="M346.748 104.006L375.579 155.994L317.918 155.994L346.748 104.006Z" fill="#2F3435"/>
<path d="M231.662 104.006L260.493 155.994L202.832 155.994L231.662 104.006Z" fill="#2F3435"/>
<path d="M461.467 5.04086e-06L490.297 51.9878L432.637 51.9878L461.467 5.04086e-06Z" fill="#2F3435"/>
<path d="M518.955 5.04086e-06L547.786 51.9878L490.125 51.9878L518.955 5.04086e-06Z" fill="#2F3435"/>
<path d="M432.465 155.993L403.634 104.006L461.295 104.006L432.465 155.993Z" fill="#2B3031"/>
<path d="M375.461 260L346.63 208.012L404.291 208.012L375.461 260Z" fill="#2B3031"/>
<path d="M490.468 260L461.638 208.012L519.299 208.012L490.468 260Z" fill="#2B3031"/>
<path d="M260.375 260L231.544 208.012L289.205 208.012L260.375 260Z" fill="#2B3031"/>
<path d="M317.918 155.993L289.087 104.006L346.748 104.006L317.918 155.993Z" fill="#2B3031"/>
<path d="M202.83 155.994L173.999 104.006L231.66 104.006L202.83 155.994Z" fill="#2B3031"/>
<path d="M202.83 52.003L173.999 0.0152309L231.66 0.0152359L202.83 52.003Z" fill="#2B3031"/>
<path d="M202.83 260L173.999 208.012L231.66 208.012L202.83 260Z" fill="#2B3031"/>
<path d="M835.465 52.0026L864.296 103.99H806.635L835.465 52.0026Z" fill="#2F3435"/>
<path d="M778.461 156.009L807.292 207.996H749.631L778.461 156.009Z" fill="#2F3435"/>
<path d="M893.469 156.009L922.299 207.996H864.639L893.469 156.009Z" fill="#2F3435"/>
<path d="M663.375 156.009L692.206 207.996H634.545L663.375 156.009Z" fill="#2F3435"/>
<path d="M605.83 156.009L634.661 207.996H577L605.83 156.009Z" fill="#2F3435"/>
<path d="M720.918 52.1729L749.749 104.161H692.088L720.918 52.1729Z" fill="#2F3435"/>
<path d="M605.83 52.0028L634.661 103.991H577L605.83 52.0028Z" fill="#2F3435"/>
<path d="M864.178 103.99L835.347 52.0025L893.008 52.0025L864.178 103.99Z" fill="#2B3031"/>
<path d="M807.174 207.996L778.343 156.009L836.004 156.009L807.174 207.996Z" fill="#2B3031"/>
<path d="M922.181 207.996L893.351 156.009L951.012 156.009L922.181 207.996Z" fill="#2B3031"/>
<path d="M692.09 207.996L663.259 156.009L720.92 156.009L692.09 207.996Z" fill="#2B3031"/>
<path d="M749.631 104.161L720.8 52.1729L778.461 52.173L749.631 104.161Z" fill="#2B3031"/>
<path d="M634.545 103.991L605.714 52.0028L663.375 52.0028L634.545 103.991Z" fill="#2B3031"/>
<path d="M778.461 52.003L749.63 0.0152309L807.291 0.0152359L778.461 52.003Z" fill="#2B3031"/>
<path d="M835.465 52.003L806.634 0.0152309L864.295 0.0152359L835.465 52.003Z" fill="#2B3031"/>
<path d="M893.008 52.003L864.177 0.0152309L921.838 0.0152359L893.008 52.003Z" fill="#2B3031"/>
<path d="M951.011 52.003L922.181 0.0152309L979.842 0.0152359L951.011 52.003Z" fill="#2B3031"/>
<path d="M720.92 52.003L692.089 0.0152309L749.75 0.0152359L720.92 52.003Z" fill="#2B3031"/>
<path d="M663.492 52.003L634.662 0.0152309L692.322 0.0152359L663.492 52.003Z" fill="#2B3031"/>
<path d="M893.008 52.0026L921.838 103.99H864.178L893.008 52.0026Z" fill="#2F3435"/>
<path d="M836.004 156.009L864.835 207.996H807.174L836.004 156.009Z" fill="#2F3435"/>
<path d="M951.012 156.009L979.842 207.996H922.182L951.012 156.009Z" fill="#2F3435"/>
<path d="M951.012 52.0026L979.842 103.99H922.182L951.012 52.0026Z" fill="#2F3435"/>
<path d="M720.918 156.009L749.749 207.997H692.088L720.918 156.009Z" fill="#2F3435"/>
<path d="M778.461 52.1729L807.292 104.161H749.631L778.461 52.1729Z" fill="#2F3435"/>
<path d="M663.375 52.0028L692.206 103.991H634.545L663.375 52.0028Z" fill="#2F3435"/>
<path d="M634.662 0L663.493 51.9878H605.832L634.662 0Z" fill="#2F3435"/>
<path d="M692.323 0L721.153 51.9878H663.492L692.323 0Z" fill="#2F3435"/>
<path d="M806.805 0L835.635 51.9878H777.975L806.805 0Z" fill="#2F3435"/>
<path d="M979.959 0L1008.79 51.9878H951.129L979.959 0Z" fill="#2F3435"/>
<path d="M893.008 155.993L864.177 104.006L921.838 104.006L893.008 155.993Z" fill="#2B3031"/>
<path d="M836.006 260L807.175 208.012L864.836 208.012L836.006 260Z" fill="#2B3031"/>
<path d="M951.011 260L922.181 208.012L979.842 208.012L951.011 260Z" fill="#2B3031"/>
<path d="M720.838 260L692.007 208.012L749.668 208.012L720.838 260Z" fill="#2B3031"/>
<path d="M951.129 155.993L922.298 104.006L979.959 104.006L951.129 155.993Z" fill="#2B3031"/>
<path d="M778.461 155.993L749.63 104.006L807.291 104.006L778.461 155.993Z" fill="#2B3031"/>
<path d="M663.375 155.994L634.544 104.006L692.205 104.006L663.375 155.994Z" fill="#2B3031"/>
<path d="M864.295 104.006L893.126 155.993L835.465 155.993L864.295 104.006Z" fill="#2F3435"/>
<path d="M807.291 208.012L836.122 260L778.461 260L807.291 208.012Z" fill="#2F3435"/>
<path d="M922.299 208.012L951.129 260L893.469 260L922.299 208.012Z" fill="#2F3435"/>
<path d="M692.205 208.012L721.036 260L663.375 260L692.205 208.012Z" fill="#2F3435"/>
<path d="M749.748 104.006L778.579 155.994L720.918 155.994L749.748 104.006Z" fill="#2F3435"/>
<path d="M634.662 104.006L663.493 155.994L605.832 155.994L634.662 104.006Z" fill="#2F3435"/>
<path d="M864.467 5.04086e-06L893.297 51.9878L835.637 51.9878L864.467 5.04086e-06Z" fill="#2F3435"/>
<path d="M921.955 5.04086e-06L950.786 51.9878L893.125 51.9878L921.955 5.04086e-06Z" fill="#2F3435"/>
<path d="M835.465 155.993L806.634 104.006L864.295 104.006L835.465 155.993Z" fill="#2B3031"/>
<path d="M778.461 260L749.63 208.012L807.291 208.012L778.461 260Z" fill="#2B3031"/>
<path d="M893.468 260L864.638 208.012L922.299 208.012L893.468 260Z" fill="#2B3031"/>
<path d="M663.375 260L634.544 208.012L692.205 208.012L663.375 260Z" fill="#2B3031"/>
<path d="M720.918 155.993L692.087 104.006L749.748 104.006L720.918 155.993Z" fill="#2B3031"/>
<path d="M605.83 155.994L576.999 104.006L634.66 104.006L605.83 155.994Z" fill="#2B3031"/>
<path d="M605.83 52.003L576.999 0.0152309L634.66 0.0152359L605.83 52.003Z" fill="#2B3031"/>
<path d="M605.83 260L576.999 208.012L634.66 208.012L605.83 260Z" fill="#2B3031"/>
<path d="M1181.46 156.009L1210.29 207.996H1152.63L1181.46 156.009Z" fill="#2F3435"/>
<path d="M1066.38 156.009L1095.21 207.996H1037.54L1066.38 156.009Z" fill="#2F3435"/>
<path d="M1008.83 156.009L1037.66 207.996H980L1008.83 156.009Z" fill="#2F3435"/>
<path d="M1123.92 52.1729L1152.75 104.161H1095.09L1123.92 52.1729Z" fill="#2F3435"/>
<path d="M1008.83 52.0028L1037.66 103.991H980L1008.83 52.0028Z" fill="#2F3435"/>
<path d="M1210.17 207.996L1181.34 156.009L1239 156.009L1210.17 207.996Z" fill="#2B3031"/>
<path d="M1095.09 207.996L1066.26 156.009L1123.92 156.009L1095.09 207.996Z" fill="#2B3031"/>
<path d="M1152.63 104.161L1123.8 52.1729L1181.46 52.173L1152.63 104.161Z" fill="#2B3031"/>
<path d="M1037.54 103.991L1008.71 52.0028L1066.38 52.0028L1037.54 103.991Z" fill="#2B3031"/>
<path d="M1181.46 52.003L1152.63 0.0152309L1210.29 0.0152359L1181.46 52.003Z" fill="#2B3031"/>
<path d="M1123.92 52.003L1095.09 0.0152309L1152.75 0.0152359L1123.92 52.003Z" fill="#2B3031"/>
<path d="M1066.49 52.003L1037.66 0.0152309L1095.32 0.0152359L1066.49 52.003Z" fill="#2B3031"/>
<path d="M1123.92 156.009L1152.75 207.997H1095.09L1123.92 156.009Z" fill="#2F3435"/>
<path d="M1181.46 52.1729L1210.29 104.161H1152.63L1181.46 52.1729Z" fill="#2F3435"/>
<path d="M1066.38 52.0028L1095.21 103.991H1037.54L1066.38 52.0028Z" fill="#2F3435"/>
<path d="M1037.66 0L1066.49 51.9878H1008.83L1037.66 0Z" fill="#2F3435"/>
<path d="M1095.32 0L1124.15 51.9878H1066.49L1095.32 0Z" fill="#2F3435"/>
<path d="M1209.81 0L1238.64 51.9878H1180.98L1209.81 0Z" fill="#2F3435"/>
<path d="M1123.84 260L1095.01 208.012L1152.67 208.012L1123.84 260Z" fill="#2B3031"/>
<path d="M1181.46 155.993L1152.63 104.006L1210.29 104.006L1181.46 155.993Z" fill="#2B3031"/>
<path d="M1066.37 155.994L1037.54 104.006L1095.21 104.006L1066.37 155.994Z" fill="#2B3031"/>
<path d="M1210.29 208.012L1239.12 260L1181.46 260L1210.29 208.012Z" fill="#2F3435"/>
<path d="M1095.21 208.012L1124.04 260L1066.37 260L1095.21 208.012Z" fill="#2F3435"/>
<path d="M1152.75 104.006L1181.58 155.994L1123.92 155.994L1152.75 104.006Z" fill="#2F3435"/>
<path d="M1037.66 104.006L1066.49 155.994L1008.83 155.994L1037.66 104.006Z" fill="#2F3435"/>
<path d="M1181.46 260L1152.63 208.012L1210.29 208.012L1181.46 260Z" fill="#2B3031"/>
<path d="M1066.37 260L1037.54 208.012L1095.21 208.012L1066.37 260Z" fill="#2B3031"/>
<path d="M1123.92 155.993L1095.09 104.006L1152.75 104.006L1123.92 155.993Z" fill="#2B3031"/>
<path d="M1008.83 155.994L979.999 104.006L1037.66 104.006L1008.83 155.994Z" fill="#2B3031"/>
<path d="M1008.83 52.003L979.999 0.0152309L1037.66 0.0152359L1008.83 52.003Z" fill="#2B3031"/>
<path d="M1008.83 260L979.999 208.012L1037.66 208.012L1008.83 260Z" fill="#2B3031"/>
</g>
</g>
<defs>
<linearGradient id="paint0_linear_13_69505" x1="9.03906" y1="130" x2="1209.04" y2="130" gradientUnits="userSpaceOnUse">
<stop stop-opacity="0"/>
<stop offset="1" stop-color="#737373"/>
</linearGradient>
<clipPath id="clip0_13_69505">
<path d="M0 19.2C0 12.4794 0 9.11905 1.30792 6.55211C2.4584 4.29417 4.29417 2.4584 6.55211 1.30792C9.11905 0 12.4794 0 19.2 0H1180.8C1187.52 0 1190.88 0 1193.45 1.30792C1195.71 2.4584 1197.54 4.29417 1198.69 6.55211C1200 9.11905 1200 12.4794 1200 19.2V240.8C1200 247.521 1200 250.881 1198.69 253.448C1197.54 255.706 1195.71 257.542 1193.45 258.692C1190.88 260 1187.52 260 1180.8 260H19.2C12.4794 260 9.11905 260 6.55211 258.692C4.29417 257.542 2.4584 255.706 1.30792 253.448C0 250.881 0 247.521 0 240.8V19.2Z" fill="white"/>
</clipPath>
</defs>
</svg>
